<svg width="44" height="44" viewBox="0 0 44 44" fill="#fff" xmlns="http://www.w3.org/2000/svg">
<path fill-rule="evenodd" clip-rule="evenodd" d="M20 15C20 16.1046 20.8954 17 22 17C23.1046 17 24 16.1046 24 15C24 13.8954 23.1046 13 22 13C20.8954 13 20 13.8954 20 15ZM20 22C20 23.1046 20.8954 24 22 24C23.1046 24 24 23.1046 24 22C24 20.8954 23.1046 20 22 20C20.8954 20 20 20.8954 20 22ZM22 31C20.8954 31 20 30.1046 20 29C20 27.8954 20.8954 27 22 27C23.1046 27 24 27.8954 24 29C24 30.1046 23.1046 31 22 31Z" fill="#fff"/>
</svg>
