<svg width="20" height="20" viewBox="0 0 20 20" fill="none" xmlns="http://www.w3.org/2000/svg">
<path fill-rule="evenodd" clip-rule="evenodd" d="M14 18H12.43C12.2725 18.0107 12.1164 17.9646 11.99 17.87C11.88 17.7789 11.7942 17.6621 11.74 17.53L10.74 14.76H5.3L4.3 17.53C4.24728 17.6546 4.16489 17.7645 4.06 17.85C3.93684 17.9525 3.78014 18.006 3.62 18L2 18L7 5.47H9L14 18ZM10.15 13.3L8.42 8.72C8.25496 8.27817 8.11474 7.82747 8 7.37C7.93333 7.64333 7.86333 7.89333 7.79 8.12C7.71667 8.34667 7.64667 8.54667 7.58 8.72L5.85 13.3H10.15ZM15 2L18 6H12L15 2Z" fill="#202122"/>
</svg>
