<svg width="264" height="162" viewBox="0 0 264 162" fill="none" xmlns="http://www.w3.org/2000/svg">
<g clip-path="url(#clip0_4644_19039)">
<path d="M264 0H0V162H264" fill="white"/>
<path d="M12 162V53H216V162H12Z" fill="#EAECF0"/>
<path d="M253 22C253 14 247 8 239 8C231 8 225 14 225 22C225 30 231 36 239 36C247 36 253 30 253 22ZM226 45V40H251V45H226Z" fill="#EAECF0"/>
<path d="M226 163V58H251V164H226" fill="#EAECF0"/>
<path d="M31 5H5V11H31V5ZM55 5H33V11H55V5ZM79 5H57V11H79V5ZM102 5H89V11H102V5ZM87 5H81V11H87V5ZM110 5H104V11H110V5Z" fill="#EAECF0"/>
<path d="M6 16V20H98V16H6ZM5 15H99V21H5V15Z" fill="#EAECF0"/>
<path d="M96 17H94V19H96V17Z" fill="#EAECF0"/>
<path d="M264 0V162H0V0H264ZM263 1H1V151.533L12 160.699L24 150.699L36 160.699L48 150.699L60 160.699L72 150.699L84 160.699L96 150.699L108 160.699L120 150.699L132 160.699L144 150.699L156 160.699L168 150.699L180 160.699L192 150.699L204 160.699L216 150.699L228 160.699L240 150.699L252 160.699L263 151.699V1Z" fill="#EAECF0"/>
<rect width="77" height="3" transform="matrix(-1 0 0 1 173 117)" fill="#EAECF0"/>
<rect width="77" height="3" transform="matrix(-1 0 0 1 173 134)" fill="#EAECF0"/>
<rect width="67" height="3" transform="matrix(-1 0 0 1 173 123)" fill="#EAECF0"/>
<rect width="67" height="3" transform="matrix(-1 0 0 1 173 140)" fill="#EAECF0"/>
<rect width="58" height="3" transform="matrix(-1 0 0 1 173 129)" fill="#EAECF0"/>
<rect width="58" height="3" transform="matrix(-1 0 0 1 173 146)" fill="#EAECF0"/>
<path d="M142 22H216V32H142V22Z" fill="#EAECF0"/>
<path fill-rule="evenodd" clip-rule="evenodd" d="M168 50C163.582 50 160 46.4183 160 42C160 37.5817 163.582 34 168 34C172.418 34 176 37.5817 176 42C176 46.4183 172.418 50 168 50ZM174 45L171.25 40.7143L169.188 43.7143L166.438 39L163 45H174Z" fill="#EAECF0"/>
<path fill-rule="evenodd" clip-rule="evenodd" d="M188 50C183.582 50 180 46.4183 180 42C180 37.5817 183.582 34 188 34C192.418 34 196 37.5817 196 42C196 46.4183 192.418 50 188 50ZM194 45L191.25 40.7143L189.188 43.7143L186.438 39L183 45H194Z" fill="#EAECF0"/>
<path fill-rule="evenodd" clip-rule="evenodd" d="M208 50C203.582 50 200 46.4183 200 42C200 37.5817 203.582 34 208 34C212.418 34 216 37.5817 216 42C216 46.4183 212.418 50 208 50ZM214 45L211.25 40.7143L209.188 43.7143L206.438 39L203 45H214Z" fill="#EAECF0"/>
<path fill-rule="evenodd" clip-rule="evenodd" d="M105 63C103.895 63 103 63.8954 103 65V151C103 152.105 103.895 153 105 153H159C160.105 153 161 152.105 161 151V65C161 63.8954 160.105 63 159 63H105ZM156.538 121.171L144.548 102.355L135.555 115.526L123.565 94.8293L108.577 121.171H156.538Z" fill="#3366CC"/>
<path d="M144.548 102.355L144.342 102.214L144.555 101.902L144.759 102.221L144.548 102.355ZM156.538 121.171L156.749 121.036L156.994 121.421H156.538V121.171ZM135.555 115.526L135.762 115.667L135.538 115.995L135.339 115.651L135.555 115.526ZM123.565 94.8293L123.348 94.7056L123.563 94.3272L123.781 94.7039L123.565 94.8293ZM108.577 121.171V121.421H108.147L108.36 121.047L108.577 121.171ZM102.75 65C102.75 63.7574 103.757 62.75 105 62.75V63.25C104.033 63.25 103.25 64.0335 103.25 65H102.75ZM102.75 151V65H103.25V151H102.75ZM105 153.25C103.757 153.25 102.75 152.243 102.75 151H103.25C103.25 151.966 104.033 152.75 105 152.75V153.25ZM159 153.25H105V152.75H159V153.25ZM161.25 151C161.25 152.243 160.243 153.25 159 153.25V152.75C159.966 152.75 160.75 151.966 160.75 151H161.25ZM161.25 65V151H160.75V65H161.25ZM159 62.75C160.243 62.75 161.25 63.7574 161.25 65H160.75C160.75 64.0335 159.966 63.25 159 63.25V62.75ZM105 62.75H159V63.25H105V62.75ZM144.759 102.221L156.749 121.036L156.328 121.305L144.337 102.49L144.759 102.221ZM135.349 115.385L144.342 102.214L144.755 102.496L135.762 115.667L135.349 115.385ZM123.781 94.7039L135.772 115.401L135.339 115.651L123.349 94.9546L123.781 94.7039ZM108.36 121.047L123.348 94.7056L123.782 94.9529L108.794 121.294L108.36 121.047ZM156.538 121.421H108.577V120.921H156.538V121.421Z" fill="#3366CC"/>
<rect width="12" height="1" transform="matrix(-1 0 0 1 159 65)" fill="#EAECF0"/>
<rect width="12" height="1" transform="matrix(-1 0 0 1 145 65)" fill="#EAECF0"/>
<rect width="12" height="1" transform="matrix(-1 0 0 1 131 65)" fill="#EAECF0"/>
<rect width="12" height="1" transform="matrix(-1 0 0 1 117 65)" fill="#EAECF0"/>
<path d="M160.472 49.1493L149.905 56.6516L152.43 60.2092L141.093 60.2074L144.83 49.5037L147.356 53.0614L153.378 48.7862C153.378 48.7862 154.894 47.4645 157.22 47.5311C159.546 47.5979 160.472 49.1493 160.472 49.1493Z" fill="#D8D8D8"/>
<rect width="50" height="2" transform="matrix(-1 0 0 1 156 134)" fill="#EAECF0"/>
<rect width="46" height="2" transform="matrix(-1 0 0 1 156 138)" fill="#EAECF0"/>
<rect width="37" height="2" transform="matrix(-1 0 0 1 156 142)" fill="#EAECF0"/>
<rect width="33" height="2" transform="matrix(-1 0 0 1 156 146)" fill="#EAECF0"/>
</g>
<defs>
<clipPath id="clip0_4644_19039">
<rect width="264" height="162" fill="white" transform="matrix(-1 0 0 1 264 0)"/>
</clipPath>
</defs>
</svg>
