<svg width="264" height="162" viewBox="0 0 264 162" fill="none" xmlns="http://www.w3.org/2000/svg">
<g clip-path="url(#clip0_4641_18989)">
<path d="M0 0H264V162H0" fill="white"/>
<path d="M252 162V53H48V162H252Z" fill="#EAECF0"/>
<path d="M11 22C11 14 17 8 25 8C33 8 39 14 39 22C39 30 33 36 25 36C17 36 11 30 11 22ZM38 45V40H13V45H38Z" fill="#EAECF0"/>
<path d="M38 163V58H13V164H38" fill="#EAECF0"/>
<path d="M233 5H259V11H233V5ZM209 5H231V11H209V5ZM185 5H207V11H185V5ZM162 5H175V11H162V5ZM177 5H183V11H177V5ZM154 5H160V11H154V5Z" fill="#EAECF0"/>
<path d="M258 16V20H166V16H258ZM259 15H165V21H259V15Z" fill="#EAECF0"/>
<path d="M168 17H170V19H168V17Z" fill="#EAECF0"/>
<path d="M0 0V162H264V0H0ZM1 1H263V151.533L252 160.699L240 150.699L228 160.699L216 150.699L204 160.699L192 150.699L180 160.699L168 150.699L156 160.699L144 150.699L132 160.699L120 150.699L108 160.699L96 150.699L84 160.699L72 150.699L60 160.699L48 150.699L36 160.699L24 150.699L12 160.699L1 151.699V1Z" fill="#EAECF0"/>
<rect x="91" y="117" width="77" height="3" fill="#EAECF0"/>
<rect x="91" y="134" width="77" height="3" fill="#EAECF0"/>
<rect x="91" y="123" width="67" height="3" fill="#EAECF0"/>
<rect x="91" y="140" width="67" height="3" fill="#EAECF0"/>
<rect x="91" y="129" width="58" height="3" fill="#EAECF0"/>
<rect x="91" y="146" width="58" height="3" fill="#EAECF0"/>
<path d="M122 22H48V32H122V22Z" fill="#EAECF0"/>
<path fill-rule="evenodd" clip-rule="evenodd" d="M96 50C100.418 50 104 46.4183 104 42C104 37.5817 100.418 34 96 34C91.5817 34 88 37.5817 88 42C88 46.4183 91.5817 50 96 50ZM90 45L92.75 40.7143L94.8125 43.7143L97.5625 39L101 45H90Z" fill="#EAECF0"/>
<path fill-rule="evenodd" clip-rule="evenodd" d="M76 50C80.4183 50 84 46.4183 84 42C84 37.5817 80.4183 34 76 34C71.5817 34 68 37.5817 68 42C68 46.4183 71.5817 50 76 50ZM70 45L72.75 40.7143L74.8125 43.7143L77.5625 39L81 45H70Z" fill="#EAECF0"/>
<path fill-rule="evenodd" clip-rule="evenodd" d="M56 50C60.4183 50 64 46.4183 64 42C64 37.5817 60.4183 34 56 34C51.5817 34 48 37.5817 48 42C48 46.4183 51.5817 50 56 50ZM50 45L52.75 40.7143L54.8125 43.7143L57.5625 39L61 45H50Z" fill="#EAECF0"/>
<path fill-rule="evenodd" clip-rule="evenodd" d="M159 63C160.105 63 161 63.8954 161 65V151C161 152.105 160.105 153 159 153H105C103.895 153 103 152.105 103 151V65C103 63.8954 103.895 63 105 63H159ZM107.462 121.171L119.452 102.355L128.445 115.526L140.435 94.8293L155.423 121.171H107.462Z" fill="#3366CC"/>
<path d="M119.452 102.355L119.658 102.214L119.445 101.902L119.241 102.221L119.452 102.355ZM107.462 121.171L107.251 121.036L107.006 121.421H107.462V121.171ZM128.445 115.526L128.238 115.667L128.462 115.995L128.661 115.651L128.445 115.526ZM140.435 94.8293L140.652 94.7056L140.437 94.3272L140.219 94.7039L140.435 94.8293ZM155.423 121.171V121.421H155.853L155.64 121.047L155.423 121.171ZM161.25 65C161.25 63.7574 160.243 62.75 159 62.75V63.25C159.967 63.25 160.75 64.0335 160.75 65H161.25ZM161.25 151V65H160.75V151H161.25ZM159 153.25C160.243 153.25 161.25 152.243 161.25 151H160.75C160.75 151.966 159.967 152.75 159 152.75V153.25ZM105 153.25H159V152.75H105V153.25ZM102.75 151C102.75 152.243 103.757 153.25 105 153.25V152.75C104.034 152.75 103.25 151.966 103.25 151H102.75ZM102.75 65V151H103.25V65H102.75ZM105 62.75C103.757 62.75 102.75 63.7574 102.75 65H103.25C103.25 64.0335 104.034 63.25 105 63.25V62.75ZM159 62.75H105V63.25H159V62.75ZM119.241 102.221L107.251 121.036L107.672 121.305L119.663 102.49L119.241 102.221ZM128.651 115.385L119.658 102.214L119.245 102.496L128.238 115.667L128.651 115.385ZM140.219 94.7039L128.228 115.401L128.661 115.651L140.651 94.9546L140.219 94.7039ZM155.64 121.047L140.652 94.7056L140.218 94.9529L155.206 121.294L155.64 121.047ZM107.462 121.421H155.423V120.921H107.462V121.421Z" fill="#3366CC"/>
<rect x="105" y="65" width="12" height="1" fill="#EAECF0"/>
<rect x="119" y="65" width="12" height="1" fill="#EAECF0"/>
<rect x="133" y="65" width="12" height="1" fill="#EAECF0"/>
<rect x="147" y="65" width="12" height="1" fill="#EAECF0"/>
<path d="M103.528 49.1493L114.095 56.6516L111.57 60.2092L122.907 60.2074L119.17 49.5037L116.644 53.0614L110.622 48.7862C110.622 48.7862 109.106 47.4645 106.78 47.5311C104.454 47.5979 103.528 49.1493 103.528 49.1493Z" fill="#D8D8D8"/>
<rect x="108" y="134" width="50" height="2" fill="#EAECF0"/>
<rect x="108" y="138" width="46" height="2" fill="#EAECF0"/>
<rect x="108" y="142" width="37" height="2" fill="#EAECF0"/>
<rect x="108" y="146" width="33" height="2" fill="#EAECF0"/>
</g>
<defs>
<clipPath id="clip0_4641_18989">
<rect width="264" height="162" fill="white"/>
</clipPath>
</defs>
</svg>
